<?xml version="1.0" encoding="UTF-8" standalone="no"?>
<svg
   viewBox="0 0 1524.4746 1714.1154"
   version="1.1"
   id="svg7"
   sodipodi:docname="llama_icon.svg"
   width="1524.4746"
   height="1714.1154"
   inkscape:version="1.4 (e7c3feb100, 2024-10-09)"
   xmlns:inkscape="http://www.inkscape.org/namespaces/inkscape"
   xmlns:sodipodi="http://sodipodi.sourceforge.net/DTD/sodipodi-0.dtd"
   xmlns="http://www.w3.org/2000/svg"
   xmlns:svg="http://www.w3.org/2000/svg">
  <defs
     id="defs7">
    <rect
       x="1464.6766"
       y="159.20398"
       width="550.84576"
       height="751.44281"
       id="rect7" />
    <rect
       x="1464.6766"
       y="159.20398"
       width="550.84576"
       height="751.44281"
       id="rect7-6" />
  </defs>
  <sodipodi:namedview
     id="namedview7"
     pagecolor="#ffffff"
     bordercolor="#000000"
     borderopacity="0.25"
     inkscape:showpageshadow="2"
     inkscape:pageopacity="0.0"
     inkscape:pagecheckerboard="0"
     inkscape:deskcolor="#d1d1d1"
     showgrid="false"
     inkscape:zoom="0.44415145"
     inkscape:cx="213.89101"
     inkscape:cy="1270.9629"
     inkscape:window-width="2560"
     inkscape:window-height="1334"
     inkscape:window-x="0"
     inkscape:window-y="0"
     inkscape:window-maximized="1"
     inkscape:current-layer="STROKES" />
  <style
     id="style1">
        .st0{fill:#fff}.st1{fill:none;stroke:#231f20;stroke-width:50;stroke-linecap:round;stroke-linejoin:round;stroke-miterlimit:10}
    </style>
  <path
     class="st0"
     d="m 717.98146,1689.2154 h 760.90004 c 0,-96.8 -32.5,-144.3 -52.8,-164.5 -9.2,-9.2 -16,-12.8 -16,-12.8 9.4,-23.4 13.2,-47.2 13.2,-70.5 0,-105.6 -79.4,-200.6 -81.8,-203.6 2.8,-15 4.1,-29.5 4.1,-43.4 0,-92.2 -54.8,-156.7 -58.2,-160.7 l -0.1,-0.1 -0.1,-0.1 c 2.4,-5.6 3.5,-10.5 3.5,-15 0,-8.2 -3.5,-14.6 -8.5,-19.60004 -11.8,-11.8 -31.7,-15.5 -31.7,-15.5 11.2,-13.6 15.5,-27.4 15.5,-40.5 0,-28.8 -20.7,-54.4 -34.3,-68 -6.6,-6.7 -11.6,-10.5 -11.6,-10.5 3.7,-11.3 5.3,-21.5 5.3,-30.8 0,-23.5 -10.2,-40.9 -22.5,-53.3 -18.6,-18.7 -41.8,-26 -41.8,-26 20,-1.9 38.7,-4.5 56.2,-7.8 -49,-40.1 -269.30004,-47.7 -269.30004,-47.7 1.4,-4.1 13.8,-34.4 57.80004,-28.9 44,5.5 257.4,-29.9 312.3,-74.8 -112.3,15.3 -269.6,15.6 -313.4,-18.1 -62.20004,-47.9 -288.90004,-67 -288.90004,-67 -199.5,23.9 -293,133.4 -293,133.4 0,0 -249.2,51.3 -318.6,141.9 0,0 -66.800003,2.1 -66.800003,69.6 0,13.7 2.8,30.1 9.4,49.7 0,0 -22,26.4 -22,58.8 0,12.6 3.3,26.1 12.7,39.30004 0.8,1.2 1.7,2.2 2.7,3.2 6.2,6 16,9 28.1,9.6 -0.2,2.3 -0.3,4.7 -0.3,7.1 0,13.1 3.5,27.2 14.8,38.3 7.2,7.1 17.700003,13 32.600003,16.6 74.7,18.1 141,-37.4 141,-37.4 0,0 94,60.3 232.6,65.1 0,0 0.1,0.1 0.2,0.3 0.1,0 0.1,0.1 0.2,0.2 l 0.2,0.2 c 5.3,5.4 45.4,41 168.1,19.8 0,0 29.3,5.7 47.6,24 8.3,8.3 14.4,19.3 14.4,33.6 0,2.4 -0.2,4.9 -0.5,7.5 0,0 -34.9,25.1 -34.9,77.3 0,8.8 1,18.4 3.3,28.8 0,0 -30.6,22.3 -30.6,76.6 0,7.4 0.6,15.4 1.9,24 4.4,29.2 15.2,47.4 26.6,58.7 16.6,16.6 34.3,18.5 34.3,18.5 0,0 -37.7,22.2 -37.7,69.9 0,8.3 1.1,17.3 3.8,27.1 6,22.3 15.3,37.1 25,47 19.1,19.5 39.7,19.5 39.7,19.5 0,0 -32.6,7 -32.6,51 z m -110.9,-906.60004 c -40.8,7.7 -81,-33.3 -100.4,-55.3 13.4,-9.9 31.9,-20 50.9,-19 24.2,1.3 60.2,18.4 99.4,23.4 -6.4,21 -20.1,45.2 -49.9,50.9 z"
     id="Layer_7"
     style="fill:#434c5e;fill-opacity:1" />
  <path
     class="st0"
     d="m 557.58146,708.21536 c -19,-1 -37.5,9.1 -50.9,19 19.4,22 59.7,63 100.4,55.3 29.8,-5.7 43.5,-29.8 49.8,-50.9 -39.1,-5 -75.2,-22.1 -99.3,-23.4 z"
     id="Layer_8"
     style="fill:#434c5e;fill-opacity:1" />
  <path
     class="st0"
     d="m 1424.4815,568.91536 c -9.7,5.2 -24.5,10.1 -42.7,14.5 -18.2,4.4 -40,8.3 -63.7,11.5 -54.9,44.9 -268.3,80.2 -312.3,74.8 -44.00004,-5.5 -56.40004,24.8 -57.80004,28.9 0,0 220.40004,7.6 269.30004,47.7 159.3,-29.5 215.4,-110 232.7,-150.2 19.2,-44.7 -25.5,-27.2 -25.5,-27.2 z"
     id="Layer_9"
     style="fill:#434c5e;fill-opacity:1" />
  <g
     id="STROKES"
     transform="translate(-224.11854,-13.884642)"
     style="stroke:#8fbcbb;stroke-opacity:1;fill:none">
    <path
       class="st1"
       d="m 494.8,967.1 c 0,0 -200.1,96.4 -233.3,49.4 -33.2,-47 9.4,-98.1 9.4,-98.1 -39.3,-116.3 57.4,-119.3 57.4,-119.3 69.5,-90.6 318.6,-142 318.6,-142 0,0 93.5,-109.4 293,-133.4 0,0 226.7,19.2 288.9,67 62.2,47.8 354.3,27.1 419.8,-8 0,0 44.7,-17.6 25.5,27.1 -19.2,44.7 -86.2,138.9 -288.9,158 0,0 86.2,27.1 59.1,110.1 0,0 78.2,61 30.3,119.1 0,0 54.3,10.2 36.7,50.1 0,0 76.6,86.2 54.3,204.3 0,0 121.3,142.8 68.6,274.1 0,0 68.8,36.6 68.8,177.3"
       id="path1"
       style="fill:none;stroke:#8fbcbb;stroke-opacity:1"
       sodipodi:nodetypes="csccccscsccccccc" />
    <path
       class="st1"
       d="m 292.3,1029.3 c -2.1,23 4.8,51.7 47,61.9 74.7,18.1 141,-37.4 141,-37.4 0,0 94,60.3 232.6,65.1 0,0 36.2,43.4 168.8,20.5 0,0 68.7,13.3 61.5,65.1 0,0 -47.8,34.3 -31.6,106.1 0,0 -39.5,28.7 -28.7,100.6 10.8,71.8 60.9,77.2 60.9,77.2 0,0 -51.9,30.5 -33.9,97 18,66.4 64.6,66.4 64.6,66.4 0,0 -32.3,7.2 -32.3,51.2"
       id="path2"
       style="stroke:#8fbcbb;stroke-opacity:1;fill:none;fill-opacity:1" />
    <path
       class="st1"
       d="m 1385.2,768 c -199.5,-33.5 -229.8,35.1 -229.8,35.1"
       id="path3"
       style="stroke:#8fbcbb;stroke-opacity:1;fill:#434c5e;fill-opacity:1" />
    <path
       class="st1"
       d="m 1542.2,608.9 c -54.9,44.9 -268.3,80.2 -312.3,74.7 -44,-5.5 -56.4,24.8 -57.8,28.9 0,0 220.4,7.6 269.3,47.7"
       id="path4"
       style="fill:#434c5e;stroke:#8fbcbb;stroke-opacity:1;fill-opacity:1"
       sodipodi:nodetypes="cscc" />
    <path
       class="st1"
       d="m 710.8,758.8 c 0,0 34.7,-38.5 70.9,-36.6 36.2,1.9 99.1,39.4 159.1,18.3"
       id="path5"
       style="stroke:#8fbcbb;stroke-opacity:1;fill:#434c5e;fill-opacity:1" />
    <path
       class="st1"
       d="m 730.8,741.1 c 19.4,22 59.7,63 100.5,55.3 29.8,-5.7 43.5,-29.8 49.8,-50.9"
       id="path6"
       style="stroke:#8fbcbb;stroke-opacity:1;fill:#434c5e;fill-opacity:1" />
    <path
       class="st1"
       d="m 333.7,901 c 0,0 39.1,-10.9 48.3,-29.3 l -48.3,-3.5 c 0,0 -10.4,17.2 0,32.8 z"
       id="path7"
       style="stroke:#8fbcbb;stroke-opacity:1;fill:#434c5e;fill-opacity:1" />
  </g>
  <text
     xml:space="preserve"
     id="text7"
     style="font-style:normal;font-variant:normal;font-weight:normal;font-stretch:normal;font-size:640px;font-family:sans-serif;-inkscape-font-specification:'sans-serif, Normal';font-variant-ligatures:normal;font-variant-caps:normal;font-variant-numeric:normal;font-variant-east-asian:normal;text-align:start;writing-mode:lr-tb;direction:ltr;white-space:pre;shape-inside:url(#rect7);display:inline;fill:#8fbcbb;fill-opacity:1;stroke:none"
     transform="translate(-622.1285,-278.16324)"><tspan
       x="1464.6758"
       y="741.52324"
       id="tspan1">?</tspan></text>
  <text
     xml:space="preserve"
     id="text7-0"
     style="font-style:normal;font-variant:normal;font-weight:normal;font-stretch:normal;font-size:640px;font-family:sans-serif;-inkscape-font-specification:'sans-serif, Normal';font-variant-ligatures:normal;font-variant-caps:normal;font-variant-numeric:normal;font-variant-east-asian:normal;text-align:start;writing-mode:lr-tb;direction:ltr;white-space:pre;shape-inside:url(#rect7-6);display:inline;fill:#8fbcbb;fill-opacity:1;stroke:none"
     transform="rotate(29.40553,1830.0708,-159.231)"><tspan
       x="1464.6758"
       y="741.52324"
       id="tspan2">?</tspan></text>
</svg>
